<svg id="visual" viewBox="0 0 900 600" width="900" height="600" xmlns="http://www.w3.org/2000/svg" xmlns:xlink="http://www.w3.org/1999/xlink" version="1.1"><path d="M0 43L47 43L47 31L95 31L95 43L142 43L142 37L189 37L189 37L237 37L237 37L284 37L284 31L332 31L332 31L379 31L379 31L426 31L426 31L474 31L474 37L521 37L521 37L568 37L568 31L616 31L616 31L663 31L663 31L711 31L711 37L758 37L758 37L805 37L805 37L853 37L853 31L900 31L900 37L900 0L900 0L853 0L853 0L805 0L805 0L758 0L758 0L711 0L711 0L663 0L663 0L616 0L616 0L568 0L568 0L521 0L521 0L474 0L474 0L426 0L426 0L379 0L379 0L332 0L332 0L284 0L284 0L237 0L237 0L189 0L189 0L142 0L142 0L95 0L95 0L47 0L47 0L0 0Z" fill="#1b1b1b"></path><path d="M0 169L47 169L47 157L95 157L95 151L142 151L142 175L189 175L189 193L237 193L237 151L284 151L284 133L332 133L332 133L379 133L379 163L426 163L426 169L474 169L474 169L521 169L521 187L568 187L568 139L616 139L616 151L663 151L663 169L711 169L711 151L758 151L758 163L805 163L805 157L853 157L853 145L900 145L900 175L900 35L900 29L853 29L853 35L805 35L805 35L758 35L758 35L711 35L711 29L663 29L663 29L616 29L616 29L568 29L568 35L521 35L521 35L474 35L474 29L426 29L426 29L379 29L379 29L332 29L332 29L284 29L284 35L237 35L237 35L189 35L189 35L142 35L142 41L95 41L95 29L47 29L47 41L0 41Z" fill="#191919"></path><path d="M0 193L47 193L47 187L95 187L95 175L142 175L142 205L189 205L189 223L237 223L237 175L284 175L284 157L332 157L332 157L379 157L379 193L426 193L426 199L474 199L474 199L521 199L521 217L568 217L568 163L616 163L616 181L663 181L663 199L711 199L711 181L758 181L758 193L805 193L805 187L853 187L853 175L900 175L900 205L900 173L900 143L853 143L853 155L805 155L805 161L758 161L758 149L711 149L711 167L663 167L663 149L616 149L616 137L568 137L568 185L521 185L521 167L474 167L474 167L426 167L426 161L379 161L379 131L332 131L332 131L284 131L284 149L237 149L237 191L189 191L189 173L142 173L142 149L95 149L95 155L47 155L47 167L0 167Z" fill="#181818"></path><path d="M0 217L47 217L47 223L95 223L95 199L142 199L142 235L189 235L189 247L237 247L237 211L284 211L284 193L332 193L332 187L379 187L379 229L426 229L426 235L474 235L474 235L521 235L521 241L568 241L568 187L616 187L616 205L663 205L663 223L711 223L711 205L758 205L758 229L805 229L805 217L853 217L853 199L900 199L900 229L900 203L900 173L853 173L853 185L805 185L805 191L758 191L758 179L711 179L711 197L663 197L663 179L616 179L616 161L568 161L568 215L521 215L521 197L474 197L474 197L426 197L426 191L379 191L379 155L332 155L332 155L284 155L284 173L237 173L237 221L189 221L189 203L142 203L142 173L95 173L95 185L47 185L47 191L0 191Z" fill="#161616"></path><path d="M0 241L47 241L47 241L95 241L95 217L142 217L142 253L189 253L189 265L237 265L237 235L284 235L284 217L332 217L332 211L379 211L379 247L426 247L426 259L474 259L474 253L521 253L521 265L568 265L568 211L616 211L616 229L663 229L663 247L711 247L711 223L758 223L758 253L805 253L805 241L853 241L853 217L900 217L900 253L900 227L900 197L853 197L853 215L805 215L805 227L758 227L758 203L711 203L711 221L663 221L663 203L616 203L616 185L568 185L568 239L521 239L521 233L474 233L474 233L426 233L426 227L379 227L379 185L332 185L332 191L284 191L284 209L237 209L237 245L189 245L189 233L142 233L142 197L95 197L95 221L47 221L47 215L0 215Z" fill="#141414"></path><path d="M0 289L47 289L47 283L95 283L95 283L142 283L142 319L189 319L189 325L237 325L237 283L284 283L284 265L332 265L332 271L379 271L379 301L426 301L426 319L474 319L474 307L521 307L521 313L568 313L568 277L616 277L616 289L663 289L663 289L711 289L711 283L758 283L758 307L805 307L805 301L853 301L853 265L900 265L900 307L900 251L900 215L853 215L853 239L805 239L805 251L758 251L758 221L711 221L711 245L663 245L663 227L616 227L616 209L568 209L568 263L521 263L521 251L474 251L474 257L426 257L426 245L379 245L379 209L332 209L332 215L284 215L284 233L237 233L237 263L189 263L189 251L142 251L142 215L95 215L95 239L47 239L47 239L0 239Z" fill="#121212"></path><path d="M0 319L47 319L47 313L95 313L95 307L142 307L142 343L189 343L189 355L237 355L237 313L284 313L284 295L332 295L332 295L379 295L379 325L426 325L426 343L474 343L474 331L521 331L521 337L568 337L568 307L616 307L616 319L663 319L663 319L711 319L711 313L758 313L758 337L805 337L805 331L853 331L853 295L900 295L900 337L900 305L900 263L853 263L853 299L805 299L805 305L758 305L758 281L711 281L711 287L663 287L663 287L616 287L616 275L568 275L568 311L521 311L521 305L474 305L474 317L426 317L426 299L379 299L379 269L332 269L332 263L284 263L284 281L237 281L237 323L189 323L189 317L142 317L142 281L95 281L95 281L47 281L47 287L0 287Z" fill="#101010"></path><path d="M0 391L47 391L47 379L95 379L95 367L142 367L142 403L189 403L189 415L237 415L237 385L284 385L284 367L332 367L332 367L379 367L379 403L426 403L426 409L474 409L474 409L521 409L521 421L568 421L568 373L616 373L616 391L663 391L663 403L711 403L711 373L758 373L758 415L805 415L805 403L853 403L853 361L900 361L900 397L900 335L900 293L853 293L853 329L805 329L805 335L758 335L758 311L711 311L711 317L663 317L663 317L616 317L616 305L568 305L568 335L521 335L521 329L474 329L474 341L426 341L426 323L379 323L379 293L332 293L332 293L284 293L284 311L237 311L237 353L189 353L189 341L142 341L142 305L95 305L95 311L47 311L47 317L0 317Z" fill="#0d0d0d"></path><path d="M0 433L47 433L47 415L95 415L95 403L142 403L142 439L189 439L189 445L237 445L237 427L284 427L284 409L332 409L332 409L379 409L379 433L426 433L426 445L474 445L474 445L521 445L521 451L568 451L568 403L616 403L616 427L663 427L663 439L711 439L711 415L758 415L758 451L805 451L805 445L853 445L853 403L900 403L900 427L900 395L900 359L853 359L853 401L805 401L805 413L758 413L758 371L711 371L711 401L663 401L663 389L616 389L616 371L568 371L568 419L521 419L521 407L474 407L474 407L426 407L426 401L379 401L379 365L332 365L332 365L284 365L284 383L237 383L237 413L189 413L189 401L142 401L142 365L95 365L95 377L47 377L47 389L0 389Z" fill="#0a0a0a"></path><path d="M0 535L47 535L47 535L95 535L95 541L142 541L142 535L189 535L189 547L237 547L237 541L284 541L284 541L332 541L332 535L379 535L379 535L426 535L426 535L474 535L474 529L521 529L521 547L568 547L568 523L616 523L616 523L663 523L663 529L711 529L711 535L758 535L758 535L805 535L805 529L853 529L853 523L900 523L900 547L900 425L900 401L853 401L853 443L805 443L805 449L758 449L758 413L711 413L711 437L663 437L663 425L616 425L616 401L568 401L568 449L521 449L521 443L474 443L474 443L426 443L426 431L379 431L379 407L332 407L332 407L284 407L284 425L237 425L237 443L189 443L189 437L142 437L142 401L95 401L95 413L47 413L47 431L0 431Z" fill="#070707"></path><path d="M0 553L47 553L47 553L95 553L95 565L142 565L142 559L189 559L189 565L237 565L237 565L284 565L284 565L332 565L332 559L379 559L379 559L426 559L426 559L474 559L474 553L521 553L521 565L568 565L568 547L616 547L616 547L663 547L663 547L711 547L711 559L758 559L758 553L805 553L805 553L853 553L853 547L900 547L900 565L900 545L900 521L853 521L853 527L805 527L805 533L758 533L758 533L711 533L711 527L663 527L663 521L616 521L616 521L568 521L568 545L521 545L521 527L474 527L474 533L426 533L426 533L379 533L379 533L332 533L332 539L284 539L284 539L237 539L237 545L189 545L189 533L142 533L142 539L95 539L95 533L47 533L47 533L0 533Z" fill="#030303"></path><path d="M0 601L47 601L47 601L95 601L95 601L142 601L142 601L189 601L189 601L237 601L237 601L284 601L284 601L332 601L332 601L379 601L379 601L426 601L426 601L474 601L474 601L521 601L521 601L568 601L568 601L616 601L616 601L663 601L663 601L711 601L711 601L758 601L758 601L805 601L805 601L853 601L853 601L900 601L900 601L900 563L900 545L853 545L853 551L805 551L805 551L758 551L758 557L711 557L711 545L663 545L663 545L616 545L616 545L568 545L568 563L521 563L521 551L474 551L474 557L426 557L426 557L379 557L379 557L332 557L332 563L284 563L284 563L237 563L237 563L189 563L189 557L142 557L142 563L95 563L95 551L47 551L47 551L0 551Z" fill="#000000"></path></svg>