<svg id="visual" viewBox="0 0 900 450" width="900" height="450" xmlns="http://www.w3.org/2000/svg" xmlns:xlink="http://www.w3.org/1999/xlink" version="1.1"><path d="M0 33L47 33L47 24L95 24L95 33L142 33L142 28L189 28L189 28L237 28L237 28L284 28L284 24L332 24L332 24L379 24L379 24L426 24L426 24L474 24L474 28L521 28L521 28L568 28L568 24L616 24L616 24L663 24L663 24L711 24L711 28L758 28L758 28L805 28L805 28L853 28L853 24L900 24L900 28L900 0L900 0L853 0L853 0L805 0L805 0L758 0L758 0L711 0L711 0L663 0L663 0L616 0L616 0L568 0L568 0L521 0L521 0L474 0L474 0L426 0L426 0L379 0L379 0L332 0L332 0L284 0L284 0L237 0L237 0L189 0L189 0L142 0L142 0L95 0L95 0L47 0L47 0L0 0Z" fill="#000000"></path><path d="M0 127L47 127L47 118L95 118L95 114L142 114L142 132L189 132L189 145L237 145L237 114L284 114L284 100L332 100L332 100L379 100L379 123L426 123L426 127L474 127L474 127L521 127L521 141L568 141L568 105L616 105L616 114L663 114L663 127L711 127L711 114L758 114L758 123L805 123L805 118L853 118L853 109L900 109L900 132L900 26L900 22L853 22L853 26L805 26L805 26L758 26L758 26L711 26L711 22L663 22L663 22L616 22L616 22L568 22L568 26L521 26L521 26L474 26L474 22L426 22L426 22L379 22L379 22L332 22L332 22L284 22L284 26L237 26L237 26L189 26L189 26L142 26L142 31L95 31L95 22L47 22L47 31L0 31Z" fill="#000000"></path><path d="M0 145L47 145L47 141L95 141L95 132L142 132L142 154L189 154L189 168L237 168L237 132L284 132L284 118L332 118L332 118L379 118L379 145L426 145L426 150L474 150L474 150L521 150L521 163L568 163L568 123L616 123L616 136L663 136L663 150L711 150L711 136L758 136L758 145L805 145L805 141L853 141L853 132L900 132L900 154L900 130L900 107L853 107L853 116L805 116L805 121L758 121L758 112L711 112L711 125L663 125L663 112L616 112L616 103L568 103L568 139L521 139L521 125L474 125L474 125L426 125L426 121L379 121L379 98L332 98L332 98L284 98L284 112L237 112L237 143L189 143L189 130L142 130L142 112L95 112L95 116L47 116L47 125L0 125Z" fill="#000000"></path><path d="M0 163L47 163L47 168L95 168L95 150L142 150L142 177L189 177L189 186L237 186L237 159L284 159L284 145L332 145L332 141L379 141L379 172L426 172L426 177L474 177L474 177L521 177L521 181L568 181L568 141L616 141L616 154L663 154L663 168L711 168L711 154L758 154L758 172L805 172L805 163L853 163L853 150L900 150L900 172L900 152L900 130L853 130L853 139L805 139L805 143L758 143L758 134L711 134L711 148L663 148L663 134L616 134L616 121L568 121L568 161L521 161L521 148L474 148L474 148L426 148L426 143L379 143L379 116L332 116L332 116L284 116L284 130L237 130L237 166L189 166L189 152L142 152L142 130L95 130L95 139L47 139L47 143L0 143Z" fill="#000000"></path><path d="M0 181L47 181L47 181L95 181L95 163L142 163L142 190L189 190L189 199L237 199L237 177L284 177L284 163L332 163L332 159L379 159L379 186L426 186L426 195L474 195L474 190L521 190L521 199L568 199L568 159L616 159L616 172L663 172L663 186L711 186L711 168L758 168L758 190L805 190L805 181L853 181L853 163L900 163L900 190L900 170L900 148L853 148L853 161L805 161L805 170L758 170L758 152L711 152L711 166L663 166L663 152L616 152L616 139L568 139L568 179L521 179L521 175L474 175L474 175L426 175L426 170L379 170L379 139L332 139L332 143L284 143L284 157L237 157L237 184L189 184L189 175L142 175L142 148L95 148L95 166L47 166L47 161L0 161Z" fill="#000000"></path><path d="M0 217L47 217L47 213L95 213L95 213L142 213L142 240L189 240L189 244L237 244L237 213L284 213L284 199L332 199L332 204L379 204L379 226L426 226L426 240L474 240L474 231L521 231L521 235L568 235L568 208L616 208L616 217L663 217L663 217L711 217L711 213L758 213L758 231L805 231L805 226L853 226L853 199L900 199L900 231L900 188L900 161L853 161L853 179L805 179L805 188L758 188L758 166L711 166L711 184L663 184L663 170L616 170L616 157L568 157L568 197L521 197L521 188L474 188L474 193L426 193L426 184L379 184L379 157L332 157L332 161L284 161L284 175L237 175L237 197L189 197L189 188L142 188L142 161L95 161L95 179L47 179L47 179L0 179Z" fill="#000000"></path><path d="M0 240L47 240L47 235L95 235L95 231L142 231L142 258L189 258L189 267L237 267L237 235L284 235L284 222L332 222L332 222L379 222L379 244L426 244L426 258L474 258L474 249L521 249L521 253L568 253L568 231L616 231L616 240L663 240L663 240L711 240L711 235L758 235L758 253L805 253L805 249L853 249L853 222L900 222L900 253L900 229L900 197L853 197L853 224L805 224L805 229L758 229L758 211L711 211L711 215L663 215L663 215L616 215L616 206L568 206L568 233L521 233L521 229L474 229L474 238L426 238L426 224L379 224L379 202L332 202L332 197L284 197L284 211L237 211L237 242L189 242L189 238L142 238L142 211L95 211L95 211L47 211L47 215L0 215Z" fill="#000000"></path><path d="M0 294L47 294L47 285L95 285L95 276L142 276L142 303L189 303L189 312L237 312L237 289L284 289L284 276L332 276L332 276L379 276L379 303L426 303L426 307L474 307L474 307L521 307L521 316L568 316L568 280L616 280L616 294L663 294L663 303L711 303L711 280L758 280L758 312L805 312L805 303L853 303L853 271L900 271L900 298L900 251L900 220L853 220L853 247L805 247L805 251L758 251L758 233L711 233L711 238L663 238L663 238L616 238L616 229L568 229L568 251L521 251L521 247L474 247L474 256L426 256L426 242L379 242L379 220L332 220L332 220L284 220L284 233L237 233L237 265L189 265L189 256L142 256L142 229L95 229L95 233L47 233L47 238L0 238Z" fill="#000000"></path><path d="M0 325L47 325L47 312L95 312L95 303L142 303L142 330L189 330L189 334L237 334L237 321L284 321L284 307L332 307L332 307L379 307L379 325L426 325L426 334L474 334L474 334L521 334L521 339L568 339L568 303L616 303L616 321L663 321L663 330L711 330L711 312L758 312L758 339L805 339L805 334L853 334L853 303L900 303L900 321L900 296L900 269L853 269L853 301L805 301L805 310L758 310L758 278L711 278L711 301L663 301L663 292L616 292L616 278L568 278L568 314L521 314L521 305L474 305L474 305L426 305L426 301L379 301L379 274L332 274L332 274L284 274L284 287L237 287L237 310L189 310L189 301L142 301L142 274L95 274L95 283L47 283L47 292L0 292Z" fill="#000000"></path><path d="M0 402L47 402L47 402L95 402L95 406L142 406L142 402L189 402L189 411L237 411L237 406L284 406L284 406L332 406L332 402L379 402L379 402L426 402L426 402L474 402L474 397L521 397L521 411L568 411L568 393L616 393L616 393L663 393L663 397L711 397L711 402L758 402L758 402L805 402L805 397L853 397L853 393L900 393L900 411L900 319L900 301L853 301L853 332L805 332L805 337L758 337L758 310L711 310L711 328L663 328L663 319L616 319L616 301L568 301L568 337L521 337L521 332L474 332L474 332L426 332L426 323L379 323L379 305L332 305L332 305L284 305L284 319L237 319L237 332L189 332L189 328L142 328L142 301L95 301L95 310L47 310L47 323L0 323Z" fill="#000000"></path><path d="M0 415L47 415L47 415L95 415L95 424L142 424L142 420L189 420L189 424L237 424L237 424L284 424L284 424L332 424L332 420L379 420L379 420L426 420L426 420L474 420L474 415L521 415L521 424L568 424L568 411L616 411L616 411L663 411L663 411L711 411L711 420L758 420L758 415L805 415L805 415L853 415L853 411L900 411L900 424L900 409L900 391L853 391L853 395L805 395L805 400L758 400L758 400L711 400L711 395L663 395L663 391L616 391L616 391L568 391L568 409L521 409L521 395L474 395L474 400L426 400L426 400L379 400L379 400L332 400L332 404L284 404L284 404L237 404L237 409L189 409L189 400L142 400L142 404L95 404L95 400L47 400L47 400L0 400Z" fill="#000000"></path><path d="M0 451L47 451L47 451L95 451L95 451L142 451L142 451L189 451L189 451L237 451L237 451L284 451L284 451L332 451L332 451L379 451L379 451L426 451L426 451L474 451L474 451L521 451L521 451L568 451L568 451L616 451L616 451L663 451L663 451L711 451L711 451L758 451L758 451L805 451L805 451L853 451L853 451L900 451L900 451L900 422L900 409L853 409L853 413L805 413L805 413L758 413L758 418L711 418L711 409L663 409L663 409L616 409L616 409L568 409L568 422L521 422L521 413L474 413L474 418L426 418L426 418L379 418L379 418L332 418L332 422L284 422L284 422L237 422L237 422L189 422L189 418L142 418L142 422L95 422L95 413L47 413L47 413L0 413Z" fill="#000000"></path></svg>