<svg id="visual" viewBox="0 0 900 900" width="900" height="900" xmlns="http://www.w3.org/2000/svg" xmlns:xlink="http://www.w3.org/1999/xlink" version="1.1"><path d="M0 64L47 64L47 46L95 46L95 64L142 64L142 55L189 55L189 55L237 55L237 55L284 55L284 46L332 46L332 46L379 46L379 46L426 46L426 46L474 46L474 55L521 55L521 55L568 55L568 46L616 46L616 46L663 46L663 46L711 46L711 55L758 55L758 55L805 55L805 55L853 55L853 46L900 46L900 55L900 0L900 0L853 0L853 0L805 0L805 0L758 0L758 0L711 0L711 0L663 0L663 0L616 0L616 0L568 0L568 0L521 0L521 0L474 0L474 0L426 0L426 0L379 0L379 0L332 0L332 0L284 0L284 0L237 0L237 0L189 0L189 0L142 0L142 0L95 0L95 0L47 0L47 0L0 0Z" fill="#000000"></path><path d="M0 253L47 253L47 235L95 235L95 226L142 226L142 262L189 262L189 289L237 289L237 226L284 226L284 199L332 199L332 199L379 199L379 244L426 244L426 253L474 253L474 253L521 253L521 280L568 280L568 208L616 208L616 226L663 226L663 253L711 253L711 226L758 226L758 244L805 244L805 235L853 235L853 217L900 217L900 262L900 53L900 44L853 44L853 53L805 53L805 53L758 53L758 53L711 53L711 44L663 44L663 44L616 44L616 44L568 44L568 53L521 53L521 53L474 53L474 44L426 44L426 44L379 44L379 44L332 44L332 44L284 44L284 53L237 53L237 53L189 53L189 53L142 53L142 62L95 62L95 44L47 44L47 62L0 62Z" fill="#000000"></path><path d="M0 289L47 289L47 280L95 280L95 262L142 262L142 307L189 307L189 334L237 334L237 262L284 262L284 235L332 235L332 235L379 235L379 289L426 289L426 298L474 298L474 298L521 298L521 325L568 325L568 244L616 244L616 271L663 271L663 298L711 298L711 271L758 271L758 289L805 289L805 280L853 280L853 262L900 262L900 307L900 260L900 215L853 215L853 233L805 233L805 242L758 242L758 224L711 224L711 251L663 251L663 224L616 224L616 206L568 206L568 278L521 278L521 251L474 251L474 251L426 251L426 242L379 242L379 197L332 197L332 197L284 197L284 224L237 224L237 287L189 287L189 260L142 260L142 224L95 224L95 233L47 233L47 251L0 251Z" fill="#000000"></path><path d="M0 325L47 325L47 334L95 334L95 298L142 298L142 352L189 352L189 370L237 370L237 316L284 316L284 289L332 289L332 280L379 280L379 343L426 343L426 352L474 352L474 352L521 352L521 361L568 361L568 280L616 280L616 307L663 307L663 334L711 334L711 307L758 307L758 343L805 343L805 325L853 325L853 298L900 298L900 343L900 305L900 260L853 260L853 278L805 278L805 287L758 287L758 269L711 269L711 296L663 296L663 269L616 269L616 242L568 242L568 323L521 323L521 296L474 296L474 296L426 296L426 287L379 287L379 233L332 233L332 233L284 233L284 260L237 260L237 332L189 332L189 305L142 305L142 260L95 260L95 278L47 278L47 287L0 287Z" fill="#000000"></path><path d="M0 361L47 361L47 361L95 361L95 325L142 325L142 379L189 379L189 397L237 397L237 352L284 352L284 325L332 325L332 316L379 316L379 370L426 370L426 388L474 388L474 379L521 379L521 397L568 397L568 316L616 316L616 343L663 343L663 370L711 370L711 334L758 334L758 379L805 379L805 361L853 361L853 325L900 325L900 379L900 341L900 296L853 296L853 323L805 323L805 341L758 341L758 305L711 305L711 332L663 332L663 305L616 305L616 278L568 278L568 359L521 359L521 350L474 350L474 350L426 350L426 341L379 341L379 278L332 278L332 287L284 287L284 314L237 314L237 368L189 368L189 350L142 350L142 296L95 296L95 332L47 332L47 323L0 323Z" fill="#000000"></path><path d="M0 433L47 433L47 424L95 424L95 424L142 424L142 478L189 478L189 487L237 487L237 424L284 424L284 397L332 397L332 406L379 406L379 451L426 451L426 478L474 478L474 460L521 460L521 469L568 469L568 415L616 415L616 433L663 433L663 433L711 433L711 424L758 424L758 460L805 460L805 451L853 451L853 397L900 397L900 460L900 377L900 323L853 323L853 359L805 359L805 377L758 377L758 332L711 332L711 368L663 368L663 341L616 341L616 314L568 314L568 395L521 395L521 377L474 377L474 386L426 386L426 368L379 368L379 314L332 314L332 323L284 323L284 350L237 350L237 395L189 395L189 377L142 377L142 323L95 323L95 359L47 359L47 359L0 359Z" fill="#000000"></path><path d="M0 478L47 478L47 469L95 469L95 460L142 460L142 514L189 514L189 532L237 532L237 469L284 469L284 442L332 442L332 442L379 442L379 487L426 487L426 514L474 514L474 496L521 496L521 505L568 505L568 460L616 460L616 478L663 478L663 478L711 478L711 469L758 469L758 505L805 505L805 496L853 496L853 442L900 442L900 505L900 458L900 395L853 395L853 449L805 449L805 458L758 458L758 422L711 422L711 431L663 431L663 431L616 431L616 413L568 413L568 467L521 467L521 458L474 458L474 476L426 476L426 449L379 449L379 404L332 404L332 395L284 395L284 422L237 422L237 485L189 485L189 476L142 476L142 422L95 422L95 422L47 422L47 431L0 431Z" fill="#000000"></path><path d="M0 586L47 586L47 568L95 568L95 550L142 550L142 604L189 604L189 622L237 622L237 577L284 577L284 550L332 550L332 550L379 550L379 604L426 604L426 613L474 613L474 613L521 613L521 631L568 631L568 559L616 559L616 586L663 586L663 604L711 604L711 559L758 559L758 622L805 622L805 604L853 604L853 541L900 541L900 595L900 503L900 440L853 440L853 494L805 494L805 503L758 503L758 467L711 467L711 476L663 476L663 476L616 476L616 458L568 458L568 503L521 503L521 494L474 494L474 512L426 512L426 485L379 485L379 440L332 440L332 440L284 440L284 467L237 467L237 530L189 530L189 512L142 512L142 458L95 458L95 467L47 467L47 476L0 476Z" fill="#000000"></path><path d="M0 649L47 649L47 622L95 622L95 604L142 604L142 658L189 658L189 667L237 667L237 640L284 640L284 613L332 613L332 613L379 613L379 649L426 649L426 667L474 667L474 667L521 667L521 676L568 676L568 604L616 604L616 640L663 640L663 658L711 658L711 622L758 622L758 676L805 676L805 667L853 667L853 604L900 604L900 640L900 593L900 539L853 539L853 602L805 602L805 620L758 620L758 557L711 557L711 602L663 602L663 584L616 584L616 557L568 557L568 629L521 629L521 611L474 611L474 611L426 611L426 602L379 602L379 548L332 548L332 548L284 548L284 575L237 575L237 620L189 620L189 602L142 602L142 548L95 548L95 566L47 566L47 584L0 584Z" fill="#000000"></path><path d="M0 802L47 802L47 802L95 802L95 811L142 811L142 802L189 802L189 820L237 820L237 811L284 811L284 811L332 811L332 802L379 802L379 802L426 802L426 802L474 802L474 793L521 793L521 820L568 820L568 784L616 784L616 784L663 784L663 793L711 793L711 802L758 802L758 802L805 802L805 793L853 793L853 784L900 784L900 820L900 638L900 602L853 602L853 665L805 665L805 674L758 674L758 620L711 620L711 656L663 656L663 638L616 638L616 602L568 602L568 674L521 674L521 665L474 665L474 665L426 665L426 647L379 647L379 611L332 611L332 611L284 611L284 638L237 638L237 665L189 665L189 656L142 656L142 602L95 602L95 620L47 620L47 647L0 647Z" fill="#000000"></path><path d="M0 829L47 829L47 829L95 829L95 847L142 847L142 838L189 838L189 847L237 847L237 847L284 847L284 847L332 847L332 838L379 838L379 838L426 838L426 838L474 838L474 829L521 829L521 847L568 847L568 820L616 820L616 820L663 820L663 820L711 820L711 838L758 838L758 829L805 829L805 829L853 829L853 820L900 820L900 847L900 818L900 782L853 782L853 791L805 791L805 800L758 800L758 800L711 800L711 791L663 791L663 782L616 782L616 782L568 782L568 818L521 818L521 791L474 791L474 800L426 800L426 800L379 800L379 800L332 800L332 809L284 809L284 809L237 809L237 818L189 818L189 800L142 800L142 809L95 809L95 800L47 800L47 800L0 800Z" fill="#000000"></path><path d="M0 901L47 901L47 901L95 901L95 901L142 901L142 901L189 901L189 901L237 901L237 901L284 901L284 901L332 901L332 901L379 901L379 901L426 901L426 901L474 901L474 901L521 901L521 901L568 901L568 901L616 901L616 901L663 901L663 901L711 901L711 901L758 901L758 901L805 901L805 901L853 901L853 901L900 901L900 901L900 845L900 818L853 818L853 827L805 827L805 827L758 827L758 836L711 836L711 818L663 818L663 818L616 818L616 818L568 818L568 845L521 845L521 827L474 827L474 836L426 836L426 836L379 836L379 836L332 836L332 845L284 845L284 845L237 845L237 845L189 845L189 836L142 836L142 845L95 845L95 827L47 827L47 827L0 827Z" fill="#000000"></path></svg>