<svg id="visual" viewBox="0 0 900 600" width="900" height="600" xmlns="http://www.w3.org/2000/svg" xmlns:xlink="http://www.w3.org/1999/xlink" version="1.1"><path d="M0 43L60 43L60 61L120 61L120 19L180 19L180 61L240 61L240 37L300 37L300 61L360 61L360 61L420 61L420 67L480 67L480 19L540 19L540 43L600 43L600 49L660 49L660 73L720 73L720 31L780 31L780 55L840 55L840 67L900 67L900 25L900 0L900 0L840 0L840 0L780 0L780 0L720 0L720 0L660 0L660 0L600 0L600 0L540 0L540 0L480 0L480 0L420 0L420 0L360 0L360 0L300 0L300 0L240 0L240 0L180 0L180 0L120 0L120 0L60 0L60 0L0 0Z" fill="#333333"></path><path d="M0 97L60 97L60 127L120 127L120 79L180 79L180 115L240 115L240 73L300 73L300 103L360 103L360 91L420 91L420 97L480 97L480 61L540 61L540 79L600 79L600 67L660 67L660 127L720 127L720 103L780 103L780 121L840 121L840 127L900 127L900 103L900 23L900 65L840 65L840 53L780 53L780 29L720 29L720 71L660 71L660 47L600 47L600 41L540 41L540 17L480 17L480 65L420 65L420 59L360 59L360 59L300 59L300 35L240 35L240 59L180 59L180 17L120 17L120 59L60 59L60 41L0 41Z" fill="#303030"></path><path d="M0 229L60 229L60 277L120 277L120 253L180 253L180 265L240 265L240 241L300 241L300 157L360 157L360 223L420 223L420 163L480 163L480 211L540 211L540 223L600 223L600 169L660 169L660 193L720 193L720 235L780 235L780 223L840 223L840 229L900 229L900 193L900 101L900 125L840 125L840 119L780 119L780 101L720 101L720 125L660 125L660 65L600 65L600 77L540 77L540 59L480 59L480 95L420 95L420 89L360 89L360 101L300 101L300 71L240 71L240 113L180 113L180 77L120 77L120 125L60 125L60 95L0 95Z" fill="#2e2e2e"></path><path d="M0 301L60 301L60 301L120 301L120 277L180 277L180 301L240 301L240 331L300 331L300 223L360 223L360 259L420 259L420 199L480 199L480 307L540 307L540 331L600 331L600 253L660 253L660 253L720 253L720 313L780 313L780 295L840 295L840 271L900 271L900 277L900 191L900 227L840 227L840 221L780 221L780 233L720 233L720 191L660 191L660 167L600 167L600 221L540 221L540 209L480 209L480 161L420 161L420 221L360 221L360 155L300 155L300 239L240 239L240 263L180 263L180 251L120 251L120 275L60 275L60 227L0 227Z" fill="#2b2b2b"></path><path d="M0 361L60 361L60 409L120 409L120 367L180 367L180 397L240 397L240 415L300 415L300 373L360 373L360 367L420 367L420 409L480 409L480 433L540 433L540 391L600 391L600 361L660 361L660 463L720 463L720 445L780 445L780 445L840 445L840 391L900 391L900 379L900 275L900 269L840 269L840 293L780 293L780 311L720 311L720 251L660 251L660 251L600 251L600 329L540 329L540 305L480 305L480 197L420 197L420 257L360 257L360 221L300 221L300 329L240 329L240 299L180 299L180 275L120 275L120 299L60 299L60 299L0 299Z" fill="#282828"></path><path d="M0 421L60 421L60 421L120 421L120 415L180 415L180 457L240 457L240 445L300 445L300 409L360 409L360 415L420 415L420 463L480 463L480 457L540 457L540 403L600 403L600 421L660 421L660 505L720 505L720 481L780 481L780 505L840 505L840 445L900 445L900 439L900 377L900 389L840 389L840 443L780 443L780 443L720 443L720 461L660 461L660 359L600 359L600 389L540 389L540 431L480 431L480 407L420 407L420 365L360 365L360 371L300 371L300 413L240 413L240 395L180 395L180 365L120 365L120 407L60 407L60 359L0 359Z" fill="#262626"></path><path d="M0 445L60 445L60 463L120 463L120 427L180 427L180 469L240 469L240 469L300 469L300 439L360 439L360 427L420 427L420 481L480 481L480 481L540 481L540 433L600 433L600 463L660 463L660 523L720 523L720 505L780 505L780 535L840 535L840 481L900 481L900 457L900 437L900 443L840 443L840 503L780 503L780 479L720 479L720 503L660 503L660 419L600 419L600 401L540 401L540 455L480 455L480 461L420 461L420 413L360 413L360 407L300 407L300 443L240 443L240 455L180 455L180 413L120 413L120 419L60 419L60 419L0 419Z" fill="#232323"></path><path d="M0 469L60 469L60 487L120 487L120 451L180 451L180 499L240 499L240 517L300 517L300 487L360 487L360 451L420 451L420 511L480 511L480 529L540 529L540 469L600 469L600 475L660 475L660 541L720 541L720 517L780 517L780 559L840 559L840 499L900 499L900 481L900 455L900 479L840 479L840 533L780 533L780 503L720 503L720 521L660 521L660 461L600 461L600 431L540 431L540 479L480 479L480 479L420 479L420 425L360 425L360 437L300 437L300 467L240 467L240 467L180 467L180 425L120 425L120 461L60 461L60 443L0 443Z" fill="#212020"></path><path d="M0 523L60 523L60 505L120 505L120 487L180 487L180 541L240 541L240 565L300 565L300 499L360 499L360 505L420 505L420 523L480 523L480 565L540 565L540 481L600 481L600 493L660 493L660 559L720 559L720 553L780 553L780 571L840 571L840 535L900 535L900 529L900 479L900 497L840 497L840 557L780 557L780 515L720 515L720 539L660 539L660 473L600 473L600 467L540 467L540 527L480 527L480 509L420 509L420 449L360 449L360 485L300 485L300 515L240 515L240 497L180 497L180 449L120 449L120 485L60 485L60 467L0 467Z" fill="#1e1e1e"></path><path d="M0 601L60 601L60 601L120 601L120 601L180 601L180 601L240 601L240 601L300 601L300 601L360 601L360 601L420 601L420 601L480 601L480 601L540 601L540 601L600 601L600 601L660 601L660 601L720 601L720 601L780 601L780 601L840 601L840 601L900 601L900 601L900 527L900 533L840 533L840 569L780 569L780 551L720 551L720 557L660 557L660 491L600 491L600 479L540 479L540 563L480 563L480 521L420 521L420 503L360 503L360 497L300 497L300 563L240 563L240 539L180 539L180 485L120 485L120 503L60 503L60 521L0 521Z" fill="#1c1b1b"></path></svg>