<svg id="visual" viewBox="0 0 900 450" width="900" height="450" xmlns="http://www.w3.org/2000/svg" xmlns:xlink="http://www.w3.org/1999/xlink" version="1.1"><path d="M0 61L10.7 57.8C21.3 54.7 42.7 48.3 64.2 52.7C85.7 57 107.3 72 128.8 76.2C150.3 80.3 171.7 73.7 193 74.5C214.3 75.3 235.7 83.7 257 81.2C278.3 78.7 299.7 65.3 321.2 58.8C342.7 52.3 364.3 52.7 385.8 54.3C407.3 56 428.7 59 450 57C471.3 55 492.7 48 514.2 51.8C535.7 55.7 557.3 70.3 578.8 78C600.3 85.7 621.7 86.3 643 87.3C664.3 88.3 685.7 89.7 707 87.8C728.3 86 749.7 81 771.2 80C792.7 79 814.3 82 835.8 78.8C857.3 75.7 878.7 66.3 889.3 61.7L900 57L900 0L889.3 0C878.7 0 857.3 0 835.8 0C814.3 0 792.7 0 771.2 0C749.7 0 728.3 0 707 0C685.7 0 664.3 0 643 0C621.7 0 600.3 0 578.8 0C557.3 0 535.7 0 514.2 0C492.7 0 471.3 0 450 0C428.7 0 407.3 0 385.8 0C364.3 0 342.7 0 321.2 0C299.7 0 278.3 0 257 0C235.7 0 214.3 0 193 0C171.7 0 150.3 0 128.8 0C107.3 0 85.7 0 64.2 0C42.7 0 21.3 0 10.7 0L0 0Z" fill="#333" stroke-linecap="round" stroke-linejoin="miter"></path></svg>